<svg xmlns="http://www.w3.org/2000/svg" height="400" width="400"><path d="M0 219.063q0 50 15 79.791 16.042 31.667 49.792 46.875 34.166 16.042 69.791 19.792 32.084 3.75 69.167 3.75 16.042 0 40.208-1.25 20.209-1.25 43.021-5.521 22.813-4.27 39.271-11.146Q345 343.438 360.833 330q15.834-13.438 24.584-31.146Q400 269.063 400 219.063q0-57.084-32.708-95.417 6.458-19.375 6.458-40.625 0-28.125-12.083-52.292-24.792 0-44.271 8.75-19.48 8.75-46.146 29.584-32.708-7.709-67.5-7.709-37.917 0-74.167 8.334-27.291-21.459-46.77-30.209-19.48-8.75-44.271-8.75Q26.25 54.688 26.25 83.021q0 21.458 6.458 41.042Q0 162.396 0 219.063zm53.75 42.291q0-29.583 16.98-49.375 16.978-19.792 44.687-19.792 11.041 0 46.875 5.209 18.333 2.708 37.708 2.708t37.917-2.708q36.458-5.209 46.875-5.209 27.708 0 44.583 19.792t16.875 49.375q0 21.042-7.708 37.083-7.709 15.417-19.271 24.48-11.563 9.062-29.48 14.479-29.583 8.958-69.583 8.958h-40.416q-19.792 0-35.834-1.875-17.083-1.666-34.375-7.291-17.291-5.625-28.541-14.167Q68.75 313.437 61.25 297.5q-7.5-15.938-7.5-36.146zm38.542 0q0 9.792 3.125 19.792 3.125 10.833 10.729 18.646 7.604 7.812 16.979 7.812 10 0 17.5-8.125 13.125-15.208 13.125-38.125 0-9.583-2.708-19.583-3.125-10.833-10.73-18.646-7.604-7.812-17.187-7.812-10 0-17.5 8.333-13.333 14.375-13.333 37.708zm153.958 0q0 9.792 3.125 19.792Q252.5 291.979 260 299.792q7.5 7.812 16.875 7.812 10.208 0 17.708-8.125 13.125-15.208 13.125-38.125 0-8.958-2.916-19.583-3.125-10.833-10.73-18.646-7.604-7.812-17.187-7.812-10 0-17.083 8.333-13.542 14.375-13.542 37.708z"/></svg>