<svg xmlns="http://www.w3.org/2000/svg" width="800" height="800" viewBox="0 0 48.446 48.445"><path d="M48.446 27.855V4.35H11.757v11.87h2.684V7.034h31.321v17.36H31.137v6.223h9.686v-1.25h-7.658v-1.512zm-30.542 6.78h-3.493v1.16h6.738v.506h-6.738v1.047h19.56V34.82l-3.674-.185zM0 44.096h13.537V23.787H0v20.309zm7.055-1.02a.652.652 0 11-.003-1.305.652.652 0 01.003 1.305zM1.957 25.744h9.625l-.001 14.982H1.957V25.744z"/><path d="M6.696 18.938h21.693v13.005H14.411v1.911h15.89V17.029H4.785v5.89h1.911z"/></svg>